<mxfile host="Electron" modified="2024-08-20T16:41:19.473Z" agent="Mozilla/5.0 (Windows NT 10.0; Win64; x64) AppleWebKit/537.36 (KHTML, like Gecko) draw.io/22.1.2 Chrome/114.0.5735.289 Electron/25.9.4 Safari/537.36" etag="E5R75VH8Vn0js05Ya0Og" version="22.1.2" type="device">
  <diagram name="Page-1" id="twf_O56_-kIR7b0SyXV9">
    <mxGraphModel dx="3585" dy="2210" grid="1" gridSize="10" guides="1" tooltips="1" connect="1" arrows="1" fold="1" page="1" pageScale="1" pageWidth="1920" pageHeight="1200" math="0" shadow="0">
      <root>
        <mxCell id="0" />
        <mxCell id="1" parent="0" />
        <mxCell id="KK0hIXP3dYskdYrrd4sn-71" style="edgeStyle=orthogonalEdgeStyle;rounded=0;orthogonalLoop=1;jettySize=auto;html=1;entryX=0;entryY=0.5;entryDx=0;entryDy=0;" edge="1" parent="1" source="KK0hIXP3dYskdYrrd4sn-2" target="KK0hIXP3dYskdYrrd4sn-12">
          <mxGeometry relative="1" as="geometry" />
        </mxCell>
        <mxCell id="KK0hIXP3dYskdYrrd4sn-2" value="Entity Prototype&lt;br&gt;" style="verticalAlign=top;align=left;spacingTop=8;spacingLeft=2;spacingRight=12;shape=cube;size=10;direction=south;fontStyle=4;html=1;whiteSpace=wrap;" vertex="1" parent="1">
          <mxGeometry x="535" y="260" width="190" height="40" as="geometry" />
        </mxCell>
        <mxCell id="KK0hIXP3dYskdYrrd4sn-3" value="" style="shape=module;align=left;spacingLeft=20;align=center;verticalAlign=top;whiteSpace=wrap;html=1;rotation=90;" vertex="1" parent="1">
          <mxGeometry x="515" y="320" width="100" height="50" as="geometry" />
        </mxCell>
        <mxCell id="KK0hIXP3dYskdYrrd4sn-7" value="Trans-form3D" style="text;html=1;strokeColor=none;fillColor=none;align=center;verticalAlign=middle;whiteSpace=wrap;rounded=0;" vertex="1" parent="1">
          <mxGeometry x="545" y="330" width="40" height="30" as="geometry" />
        </mxCell>
        <mxCell id="KK0hIXP3dYskdYrrd4sn-8" value="" style="shape=module;align=left;spacingLeft=20;align=center;verticalAlign=top;whiteSpace=wrap;html=1;rotation=90;" vertex="1" parent="1">
          <mxGeometry x="575" y="320" width="100" height="50" as="geometry" />
        </mxCell>
        <mxCell id="KK0hIXP3dYskdYrrd4sn-9" value="Parent-ID" style="text;html=1;strokeColor=none;fillColor=none;align=center;verticalAlign=middle;whiteSpace=wrap;rounded=0;" vertex="1" parent="1">
          <mxGeometry x="605" y="330" width="40" height="30" as="geometry" />
        </mxCell>
        <mxCell id="KK0hIXP3dYskdYrrd4sn-10" value="" style="shape=module;align=left;spacingLeft=20;align=center;verticalAlign=top;whiteSpace=wrap;html=1;rotation=90;" vertex="1" parent="1">
          <mxGeometry x="635" y="320" width="100" height="50" as="geometry" />
        </mxCell>
        <mxCell id="KK0hIXP3dYskdYrrd4sn-11" value="Child List" style="text;html=1;strokeColor=none;fillColor=none;align=center;verticalAlign=middle;whiteSpace=wrap;rounded=0;" vertex="1" parent="1">
          <mxGeometry x="665" y="330" width="40" height="30" as="geometry" />
        </mxCell>
        <mxCell id="KK0hIXP3dYskdYrrd4sn-54" style="edgeStyle=orthogonalEdgeStyle;rounded=0;orthogonalLoop=1;jettySize=auto;html=1;endArrow=none;endFill=0;startArrow=diamondThin;startFill=1;startSize=11;" edge="1" parent="1" source="KK0hIXP3dYskdYrrd4sn-12" target="KK0hIXP3dYskdYrrd4sn-14">
          <mxGeometry relative="1" as="geometry">
            <Array as="points">
              <mxPoint x="935" y="360" />
              <mxPoint x="815" y="360" />
            </Array>
          </mxGeometry>
        </mxCell>
        <mxCell id="KK0hIXP3dYskdYrrd4sn-55" style="edgeStyle=orthogonalEdgeStyle;rounded=0;orthogonalLoop=1;jettySize=auto;html=1;endArrow=none;endFill=0;startArrow=diamondThin;startFill=1;startSize=11;" edge="1" parent="1" source="KK0hIXP3dYskdYrrd4sn-12" target="KK0hIXP3dYskdYrrd4sn-51">
          <mxGeometry relative="1" as="geometry">
            <Array as="points">
              <mxPoint x="935" y="360" />
              <mxPoint x="1050" y="360" />
            </Array>
          </mxGeometry>
        </mxCell>
        <mxCell id="KK0hIXP3dYskdYrrd4sn-12" value="Registry" style="rounded=0;whiteSpace=wrap;html=1;" vertex="1" parent="1">
          <mxGeometry x="875" y="250" width="120" height="60" as="geometry" />
        </mxCell>
        <mxCell id="KK0hIXP3dYskdYrrd4sn-48" style="edgeStyle=orthogonalEdgeStyle;rounded=0;orthogonalLoop=1;jettySize=auto;html=1;entryX=0.5;entryY=0;entryDx=0;entryDy=0;" edge="1" parent="1" source="KK0hIXP3dYskdYrrd4sn-14" target="KK0hIXP3dYskdYrrd4sn-16">
          <mxGeometry relative="1" as="geometry" />
        </mxCell>
        <mxCell id="KK0hIXP3dYskdYrrd4sn-49" style="edgeStyle=orthogonalEdgeStyle;rounded=0;orthogonalLoop=1;jettySize=auto;html=1;entryX=0.5;entryY=0;entryDx=0;entryDy=0;" edge="1" parent="1" source="KK0hIXP3dYskdYrrd4sn-14" target="KK0hIXP3dYskdYrrd4sn-17">
          <mxGeometry relative="1" as="geometry">
            <Array as="points">
              <mxPoint x="815" y="560" />
              <mxPoint x="955" y="560" />
            </Array>
          </mxGeometry>
        </mxCell>
        <mxCell id="KK0hIXP3dYskdYrrd4sn-14" value="Component Storage" style="shape=cylinder3;whiteSpace=wrap;html=1;boundedLbl=1;backgroundOutline=1;size=15;" vertex="1" parent="1">
          <mxGeometry x="780" y="430" width="70" height="100" as="geometry" />
        </mxCell>
        <mxCell id="KK0hIXP3dYskdYrrd4sn-18" style="edgeStyle=orthogonalEdgeStyle;rounded=0;orthogonalLoop=1;jettySize=auto;html=1;" edge="1" parent="1" source="KK0hIXP3dYskdYrrd4sn-15">
          <mxGeometry relative="1" as="geometry">
            <mxPoint x="675" y="740" as="targetPoint" />
          </mxGeometry>
        </mxCell>
        <mxCell id="KK0hIXP3dYskdYrrd4sn-15" value="C&lt;sub&gt;0&lt;/sub&gt;" style="rhombus;whiteSpace=wrap;html=1;" vertex="1" parent="1">
          <mxGeometry x="635" y="600" width="80" height="80" as="geometry" />
        </mxCell>
        <mxCell id="KK0hIXP3dYskdYrrd4sn-16" value="C&lt;sub&gt;1&lt;/sub&gt;" style="rhombus;whiteSpace=wrap;html=1;" vertex="1" parent="1">
          <mxGeometry x="775" y="600" width="80" height="80" as="geometry" />
        </mxCell>
        <mxCell id="KK0hIXP3dYskdYrrd4sn-17" value="C&lt;sub&gt;n&lt;/sub&gt;" style="rhombus;whiteSpace=wrap;html=1;" vertex="1" parent="1">
          <mxGeometry x="915" y="600" width="80" height="80" as="geometry" />
        </mxCell>
        <mxCell id="KK0hIXP3dYskdYrrd4sn-21" style="edgeStyle=orthogonalEdgeStyle;rounded=0;orthogonalLoop=1;jettySize=auto;html=1;" edge="1" parent="1" source="KK0hIXP3dYskdYrrd4sn-20" target="KK0hIXP3dYskdYrrd4sn-22">
          <mxGeometry relative="1" as="geometry">
            <mxPoint x="675" y="840" as="targetPoint" />
          </mxGeometry>
        </mxCell>
        <mxCell id="KK0hIXP3dYskdYrrd4sn-20" value="Sparse Set" style="rounded=0;whiteSpace=wrap;html=1;" vertex="1" parent="1">
          <mxGeometry x="615" y="740" width="120" height="30" as="geometry" />
        </mxCell>
        <mxCell id="KK0hIXP3dYskdYrrd4sn-22" value="C&lt;sub&gt;0&lt;/sub&gt;&amp;nbsp;Pool" style="shape=cylinder3;whiteSpace=wrap;html=1;boundedLbl=1;backgroundOutline=1;size=15;" vertex="1" parent="1">
          <mxGeometry x="645" y="830" width="60" height="80" as="geometry" />
        </mxCell>
        <mxCell id="KK0hIXP3dYskdYrrd4sn-39" style="edgeStyle=orthogonalEdgeStyle;rounded=0;orthogonalLoop=1;jettySize=auto;html=1;" edge="1" parent="1">
          <mxGeometry relative="1" as="geometry">
            <mxPoint x="815" y="740" as="targetPoint" />
            <mxPoint x="815" y="680" as="sourcePoint" />
          </mxGeometry>
        </mxCell>
        <mxCell id="KK0hIXP3dYskdYrrd4sn-40" style="edgeStyle=orthogonalEdgeStyle;rounded=0;orthogonalLoop=1;jettySize=auto;html=1;" edge="1" parent="1" source="KK0hIXP3dYskdYrrd4sn-41" target="KK0hIXP3dYskdYrrd4sn-42">
          <mxGeometry relative="1" as="geometry">
            <mxPoint x="815" y="840" as="targetPoint" />
          </mxGeometry>
        </mxCell>
        <mxCell id="KK0hIXP3dYskdYrrd4sn-41" value="Sparse Set" style="rounded=0;whiteSpace=wrap;html=1;" vertex="1" parent="1">
          <mxGeometry x="755" y="740" width="120" height="30" as="geometry" />
        </mxCell>
        <mxCell id="KK0hIXP3dYskdYrrd4sn-42" value="C&lt;sub&gt;1&lt;/sub&gt;&amp;nbsp;Pool" style="shape=cylinder3;whiteSpace=wrap;html=1;boundedLbl=1;backgroundOutline=1;size=15;" vertex="1" parent="1">
          <mxGeometry x="785" y="830" width="60" height="80" as="geometry" />
        </mxCell>
        <mxCell id="KK0hIXP3dYskdYrrd4sn-43" style="edgeStyle=orthogonalEdgeStyle;rounded=0;orthogonalLoop=1;jettySize=auto;html=1;" edge="1" parent="1">
          <mxGeometry relative="1" as="geometry">
            <mxPoint x="955" y="740" as="targetPoint" />
            <mxPoint x="955" y="680" as="sourcePoint" />
          </mxGeometry>
        </mxCell>
        <mxCell id="KK0hIXP3dYskdYrrd4sn-44" style="edgeStyle=orthogonalEdgeStyle;rounded=0;orthogonalLoop=1;jettySize=auto;html=1;" edge="1" parent="1" source="KK0hIXP3dYskdYrrd4sn-45" target="KK0hIXP3dYskdYrrd4sn-46">
          <mxGeometry relative="1" as="geometry">
            <mxPoint x="955" y="840" as="targetPoint" />
          </mxGeometry>
        </mxCell>
        <mxCell id="KK0hIXP3dYskdYrrd4sn-45" value="Sparse Set" style="rounded=0;whiteSpace=wrap;html=1;" vertex="1" parent="1">
          <mxGeometry x="895" y="740" width="120" height="30" as="geometry" />
        </mxCell>
        <mxCell id="KK0hIXP3dYskdYrrd4sn-46" value="C&lt;sub&gt;n&lt;/sub&gt;&amp;nbsp;Pool" style="shape=cylinder3;whiteSpace=wrap;html=1;boundedLbl=1;backgroundOutline=1;size=15;" vertex="1" parent="1">
          <mxGeometry x="925" y="830" width="60" height="80" as="geometry" />
        </mxCell>
        <mxCell id="KK0hIXP3dYskdYrrd4sn-47" style="edgeStyle=orthogonalEdgeStyle;rounded=0;orthogonalLoop=1;jettySize=auto;html=1;entryX=0.51;entryY=-0.067;entryDx=0;entryDy=0;entryPerimeter=0;" edge="1" parent="1" source="KK0hIXP3dYskdYrrd4sn-14" target="KK0hIXP3dYskdYrrd4sn-15">
          <mxGeometry relative="1" as="geometry">
            <Array as="points">
              <mxPoint x="815" y="560" />
              <mxPoint x="676" y="560" />
            </Array>
          </mxGeometry>
        </mxCell>
        <mxCell id="KK0hIXP3dYskdYrrd4sn-51" value="Entity ID pool" style="shape=cylinder3;whiteSpace=wrap;html=1;boundedLbl=1;backgroundOutline=1;size=15;" vertex="1" parent="1">
          <mxGeometry x="1015" y="430" width="70" height="100" as="geometry" />
        </mxCell>
        <mxCell id="KK0hIXP3dYskdYrrd4sn-56" value="Render Subsystem" style="verticalAlign=top;align=left;spacingTop=8;spacingLeft=2;spacingRight=12;shape=cube;size=10;direction=south;fontStyle=4;html=1;whiteSpace=wrap;" vertex="1" parent="1">
          <mxGeometry x="1215" y="515" width="180" height="40" as="geometry" />
        </mxCell>
        <mxCell id="KK0hIXP3dYskdYrrd4sn-59" value="" style="shape=module;align=left;spacingLeft=20;align=center;verticalAlign=top;whiteSpace=wrap;html=1;rotation=90;" vertex="1" parent="1">
          <mxGeometry x="1195" y="575" width="100" height="50" as="geometry" />
        </mxCell>
        <mxCell id="KK0hIXP3dYskdYrrd4sn-60" value="C&lt;sub&gt;0&lt;/sub&gt;&amp;nbsp;&lt;br&gt;Comp-onent" style="text;html=1;strokeColor=none;fillColor=none;align=center;verticalAlign=middle;whiteSpace=wrap;rounded=0;" vertex="1" parent="1">
          <mxGeometry x="1225" y="585" width="40" height="30" as="geometry" />
        </mxCell>
        <mxCell id="KK0hIXP3dYskdYrrd4sn-61" value="" style="shape=module;align=left;spacingLeft=20;align=center;verticalAlign=top;whiteSpace=wrap;html=1;rotation=90;" vertex="1" parent="1">
          <mxGeometry x="1305" y="575" width="100" height="50" as="geometry" />
        </mxCell>
        <mxCell id="KK0hIXP3dYskdYrrd4sn-62" value="C&lt;sub&gt;n&lt;/sub&gt;&amp;nbsp;&lt;br&gt;Comp-onent" style="text;html=1;strokeColor=none;fillColor=none;align=center;verticalAlign=middle;whiteSpace=wrap;rounded=0;" vertex="1" parent="1">
          <mxGeometry x="1335" y="585" width="40" height="30" as="geometry" />
        </mxCell>
        <mxCell id="KK0hIXP3dYskdYrrd4sn-64" style="edgeStyle=orthogonalEdgeStyle;rounded=0;orthogonalLoop=1;jettySize=auto;html=1;entryX=0.5;entryY=1;entryDx=0;entryDy=0;entryPerimeter=0;" edge="1" parent="1" source="KK0hIXP3dYskdYrrd4sn-59" target="KK0hIXP3dYskdYrrd4sn-22">
          <mxGeometry relative="1" as="geometry">
            <Array as="points">
              <mxPoint x="1245" y="990" />
              <mxPoint x="675" y="990" />
            </Array>
          </mxGeometry>
        </mxCell>
        <mxCell id="KK0hIXP3dYskdYrrd4sn-65" style="edgeStyle=orthogonalEdgeStyle;rounded=0;orthogonalLoop=1;jettySize=auto;html=1;entryX=0.5;entryY=1;entryDx=0;entryDy=0;entryPerimeter=0;" edge="1" parent="1" source="KK0hIXP3dYskdYrrd4sn-61" target="KK0hIXP3dYskdYrrd4sn-46">
          <mxGeometry relative="1" as="geometry">
            <Array as="points">
              <mxPoint x="1355" y="930" />
              <mxPoint x="955" y="930" />
            </Array>
          </mxGeometry>
        </mxCell>
        <mxCell id="KK0hIXP3dYskdYrrd4sn-66" value="Observe" style="swimlane;fontStyle=0;childLayout=stackLayout;horizontal=1;startSize=26;fillColor=none;horizontalStack=0;resizeParent=1;resizeParentMax=0;resizeLast=0;collapsible=1;marginBottom=0;whiteSpace=wrap;html=1;" vertex="1" parent="1">
          <mxGeometry x="1155" y="210" width="140" height="140" as="geometry" />
        </mxCell>
        <mxCell id="KK0hIXP3dYskdYrrd4sn-67" value="+ onComponentUpdate" style="text;strokeColor=none;fillColor=none;align=left;verticalAlign=top;spacingLeft=4;spacingRight=4;overflow=hidden;rotatable=0;points=[[0,0.5],[1,0.5]];portConstraint=eastwest;whiteSpace=wrap;html=1;" vertex="1" parent="KK0hIXP3dYskdYrrd4sn-66">
          <mxGeometry y="26" width="140" height="26" as="geometry" />
        </mxCell>
        <mxCell id="KK0hIXP3dYskdYrrd4sn-68" value="+ onInsertion" style="text;strokeColor=none;fillColor=none;align=left;verticalAlign=top;spacingLeft=4;spacingRight=4;overflow=hidden;rotatable=0;points=[[0,0.5],[1,0.5]];portConstraint=eastwest;whiteSpace=wrap;html=1;" vertex="1" parent="KK0hIXP3dYskdYrrd4sn-66">
          <mxGeometry y="52" width="140" height="26" as="geometry" />
        </mxCell>
        <mxCell id="KK0hIXP3dYskdYrrd4sn-69" value="+ onDeletion&lt;br&gt;&amp;nbsp;&lt;br&gt;+ on...." style="text;strokeColor=none;fillColor=none;align=left;verticalAlign=top;spacingLeft=4;spacingRight=4;overflow=hidden;rotatable=0;points=[[0,0.5],[1,0.5]];portConstraint=eastwest;whiteSpace=wrap;html=1;" vertex="1" parent="KK0hIXP3dYskdYrrd4sn-66">
          <mxGeometry y="78" width="140" height="62" as="geometry" />
        </mxCell>
        <mxCell id="KK0hIXP3dYskdYrrd4sn-70" style="edgeStyle=orthogonalEdgeStyle;rounded=0;orthogonalLoop=1;jettySize=auto;html=1;entryX=1;entryY=0.5;entryDx=0;entryDy=0;" edge="1" parent="1" source="KK0hIXP3dYskdYrrd4sn-68" target="KK0hIXP3dYskdYrrd4sn-12">
          <mxGeometry relative="1" as="geometry">
            <Array as="points">
              <mxPoint x="1155" y="280" />
              <mxPoint x="1155" y="280" />
            </Array>
          </mxGeometry>
        </mxCell>
      </root>
    </mxGraphModel>
  </diagram>
</mxfile>
